PathFileType	4	(X/Y/Z)	Kaydara																																																																																																																									
DataRate	CameraRate	NumFrames	NumMarkers	Units	OrigDataRate	OrigDataStartFrame	OrigNumFrames																																																																																																																					
30	30	4	41	mm	30	76	115																																																																																																																					
Frame#	Time	PAIB_LFHD			PAIB_RFHD			PAIB_LBHD			PAIB_RBHD			PAIB_LFTShould			PAIB_RFTShould			PAIB_LRRShould			PAIB_RRRShould			PAIB_T10			PAIB_STRN			PAIB_TRUN			PAIB_LSHO			PAIB_LUPA			PAIB_LELB			PAIB_LFRM			PAIB_LWRA			PAIB_LWRB			PAIB_LFIN			PAIB_RSHO			PAIB_RUPA			PAIB_RELB			PAIB_RFRM			PAIB_RWRA			PAIB_RWRB			PAIB_RFIN			PAIB_LFWT			PAIB_RFWT			PAIB_LBWT			PAIB_RBWT			PAIB_LTHI			PAIB_LKNE			PAIB_LSHN			PAIB_LANK			PAIB_LHEE			PAIB_LTOE			PAIB_RTHI			PAIB_RKNE			PAIB_RSHN			PAIB_RANK			PAIB_RHEE			PAIB_RTOE		
		X1	Y1	Z1	X2	Y2	Z2	X3	Y3	Z3	X4	Y4	Z4	X5	Y5	Z5	X6	Y6	Z6	X7	Y7	Z7	X8	Y8	Z8	X9	Y9	Z9	X10	Y10	Z10	X11	Y11	Z11	X12	Y12	Z12	X13	Y13	Z13	X14	Y14	Z14	X15	Y15	Z15	X16	Y16	Z16	X17	Y17	Z17	X18	Y18	Z18	X19	Y19	Z19	X20	Y20	Z20	X21	Y21	Z21	X22	Y22	Z22	X23	Y23	Z23	X24	Y24	Z24	X25	Y25	Z25	X26	Y26	Z26	X27	Y27	Z27	X28	Y28	Z28	X29	Y29	Z29	X30	Y30	Z30	X31	Y31	Z31	X32	Y32	Z32	X33	Y33	Z33	X34	Y34	Z34	X35	Y35	Z35	X36	Y36	Z36	X37	Y37	Z37	X38	Y38	Z38	X39	Y39	Z39	X40	Y40	Z40	X41	Y41	Z41
																																																																																																																												
58	2.5	249.90152	1585.37552	-899.5015	65.68629	1582.39685	-908.64128	264.71313	1577.8154	-1028.05092	61.56022	1583.69141	-1024.39636	235.51504	1331.75934	-986.31058	114.35682	1327.74399	-999.85977	247.9434	1445.24292	-1093.29567	96.78061	1439.10141	-1102.28989	182.16747	1330.91629	-1237.07703	186.4941	1256.75194	-983.45764	189.99676	1153.6338	-1001.20239	367.99232	1376.08566	-1049.11758	470.6102	1221.13075	-1185.72899	496.13609	1186.82022	-1263.85719	537.67967	1069.52026	-1287.95334	493.82053	920.06027	-1285.62317	544.68773	947.41562	-1341.11786	548.75938	880.57579	-1304.82697	-3.17512	1352.52182	-1055.56152	-92.35394	1204.36142	-1111.79459	-132.32236	1092.79396	-1120.26932	-93.16025	967.04765	-1055.59448	31.00058	922.4221	-979.85367	-41.59602	876.87195	-980.70297	4.33274	879.9015	-919.22386	294.26306	921.4003	-1118.86108	58.36681	929.54094	-1134.20555	264.4256	981.73965	-1334.28497	122.1828	1011.69815	-1336.31943	306.38508	691.02249	-1245.52223	331.42281	505.20897	-1018.16093	292.20102	312.2817	-1035.80528	272.43393	144.12645	-1157.92946	207.93945	143.74542	-1195.43373	280.27746	76.5225	-1002.75124	57.66256	723.13606	-1386.10733	49.85768	466.838	-1348.84399	113.46863	281.41922	-1365.69412	100.98375	109.95705	-1502.26028	166.89306	115.48306	-1532.31979	83.35205	70.90772	-1317.22565
59	2.533	258.89431	1569.43359	-848.31406	74.30198	1568.71323	-856.59416	272.73647	1561.39709	-976.75476	69.71329	1570.08804	-972.18338	244.45019	1315.84442	-938.93852	121.97421	1313.10242	-943.93677	248.83215	1430.12802	-1045.13512	98.02098	1425.30945	-1044.45732	173.63409	1314.65805	-1183.72444	194.31324	1241.42891	-931.69319	196.3246	1138.17368	-948.89168	371.45649	1363.27805	-1009.60663	473.41553	1220.11841	-1152.20818	497.62665	1191.60675	-1233.51051	549.24492	1080.76157	-1264.86183	520.50419	926.98761	-1267.32788	566.05793	961.94595	-1323.0835	578.64887	894.37111	-1290.71487	3.02605	1342.56439	-988.12004	-92.35899	1193.67119	-1027.70805	-133.30107	1082.88666	-1024.53369	-79.0386	967.41783	-951.98784	55.81686	939.98062	-886.03912	-13.59002	890.11093	-874.26987	37.44658	902.87613	-818.79875	290.11604	909.08981	-1060.1207	55.61296	911.56029	-1075.67612	261.28101	962.73354	-1276.28677	119.2263	993.9064	-1278.91685	304.47037	677.56874	-1172.22984	331.77231	507.68311	-930.6765	297.57135	314.82126	-905.84755	279.34059	122.48409	-981.65604	213.72889	113.61203	-1016.55914	290.54693	81.84476	-814.60426	59.10198	720.55695	-1340.6456	51.01636	463.12786	-1325.81329	113.63582	279.12104	-1354.52377	105.61131	114.75238	-1499.30038	172.09333	121.27537	-1526.78741	83.30226	70.71228	-1317.5235
60	2.567	269.54498	1554.35074	-793.69026	85.12811	1555.23697	-800.80208	282.47049	1545.38956	-922.24312	79.51606	1555.90195	-916.48087	253.21629	1299.20517	-885.4287	129.7056	1297.82639	-883.08685	252.88441	1413.97125	-992.30515	102.41179	1411.50162	-983.61931	169.30555	1298.31223	-1125.55862	202.53981	1224.68704	-875.47363	202.26215	1121.56059	-892.83508	376.28437	1348.33694	-961.88995	480.72277	1219.12453	-1110.56435	503.94024	1193.98849	-1193.32886	563.17169	1087.53777	-1227.77641	546.52523	932.17262	-1231.62712	587.67624	971.87675	-1288.02887	607.57801	906.51138	-1254.99367	13.42163	1331.06216	-919.22104	-90.16244	1186.44997	-943.87032	-133.45572	1077.28333	-933.01933	-67.03709	970.7354	-857.19452	75.12861	955.74364	-803.19763	9.40842	903.73535	-780.67253	64.22793	923.59238	-731.44592	287.0023	894.31824	-996.05865	52.51727	892.45148	-1016.89545	260.39547	943.31367	-1214.59206	118.23145	974.65286	-1219.54842	300.30769	660.9874	-1103.08121	332.07047	503.10268	-850.4174	304.71584	320.21252	-790.89439	292.66996	117.0752	-825.65926	227.60628	99.82414	-859.31229	297.34879	108.9526	-650.8889	62.52906	716.62674	-1292.68936	49.80016	460.13634	-1301.52939	111.92828	277.2294	-1339.32892	105.32375	122.89225	-1495.6105	172.00827	131.23435	-1521.54373	82.79742	71.12417	-1318.27438
61	2.6	282.61026	1542.31293	-736.05988	98.22001	1545.0798	-740.27405	293.54361	1531.65192	-864.75334	90.84574	1544.22501	-855.79277	263.05241	1285.91171	-826.09894	139.81694	1285.53787	-819.17343	258.76011	1400.68695	-932.87979	109.67538	1400.92117	-919.24057	168.91321	1284.71497	-1062.13333	211.8401	1211.95091	-813.26042	209.9021	1108.60947	-829.86832	381.80428	1337.6535	-906.92459	489.22508	1219.31053	-1060.51331	511.25141	1194.5565	-1142.14188	576.9944	1091.75491	-1176.32118	571.68221	935.83954	-1174.22531	608.00682	975.73402	-1233.86574	633.862	913.13446	-1200.20653	24.4221	1324.5929	-850.18341	-85.29425	1183.88145	-866.8206	-131.93428	1077.0079	-851.29776	-58.81859	975.60097	-774.6283	87.1488	965.0016	-730.82336	23.62782	914.40994	-699.85146	82.23008	936.94977	-656.78444	282.6597	882.47925	-927.96631	48.52988	875.78461	-955.93613	264.16128	928.82339	-1147.48558	121.59483	959.24713	-1156.6124	302.07296	649.02565	-1030.19485	329.9659	497.88292	-773.04489	306.54972	322.48165	-698.65952	307.03579	116.87628	-711.98875	245.58495	91.6218	-749.06288	297.87582	134.35234	-538.24108	65.4754	712.65366	-1239.1478	47.62086	458.42033	-1266.44104	108.13845	277.26681	-1318.77151	100.02498	138.35645	-1489.15192	166.64579	149.74136	-1514.36676	81.61852	71.28246	-1319.57794
